<?xml version="1.0" encoding="UTF-8" standalone="no"?>
<svg
   xmlns:dc="http://purl.org/dc/elements/1.1/"
   xmlns:cc="http://creativecommons.org/ns#"
   xmlns:rdf="http://www.w3.org/1999/02/22-rdf-syntax-ns#"
   xmlns:svg="http://www.w3.org/2000/svg"
   xmlns="http://www.w3.org/2000/svg"
   xmlns:sodipodi="http://sodipodi.sourceforge.net/DTD/sodipodi-0.dtd"
   xmlns:inkscape="http://www.inkscape.org/namespaces/inkscape"
   sodipodi:docname="pushout.svg"
   inkscape:version="1.0beta1 (32d4812, 2019-09-19)"
   id="svg8"
   version="1.1"
   viewBox="0 0 210 297"
   height="297mm"
   width="210mm">
  <defs
     id="defs2">
    <marker
       inkscape:stockid="Arrow1Lend"
       orient="auto"
       refY="0.0"
       refX="0.0"
       id="marker1245"
       style="overflow:visible;"
       inkscape:isstock="true">
      <path
         id="path1243"
         d="M 0.0,0.0 L 5.0,-5.0 L -12.5,0.0 L 5.0,5.0 L 0.0,0.0 z "
         style="fill-rule:evenodd;stroke:#000000;stroke-width:1pt;stroke-opacity:1;fill:#000000;fill-opacity:1"
         transform="scale(0.8) rotate(180) translate(12.5,0)" />
    </marker>
    <marker
       inkscape:stockid="Arrow1Lend"
       orient="auto"
       refY="0.0"
       refX="0.0"
       id="marker1181"
       style="overflow:visible;"
       inkscape:isstock="true">
      <path
         id="path1179"
         d="M 0.0,0.0 L 5.0,-5.0 L -12.5,0.0 L 5.0,5.0 L 0.0,0.0 z "
         style="fill-rule:evenodd;stroke:#000000;stroke-width:1pt;stroke-opacity:1;fill:#000000;fill-opacity:1"
         transform="scale(0.8) rotate(180) translate(12.5,0)" />
    </marker>
    <marker
       inkscape:isstock="true"
       style="overflow:visible;"
       id="marker1145"
       refX="0.0"
       refY="0.0"
       orient="auto"
       inkscape:stockid="Arrow1Lend">
      <path
         transform="scale(0.8) rotate(180) translate(12.5,0)"
         style="fill-rule:evenodd;stroke:#000000;stroke-width:1pt;stroke-opacity:1;fill:#000000;fill-opacity:1"
         d="M 0.0,0.0 L 5.0,-5.0 L -12.5,0.0 L 5.0,5.0 L 0.0,0.0 z "
         id="path1143" />
    </marker>
    <marker
       inkscape:isstock="true"
       style="overflow:visible"
       id="Arrow1Lstart"
       refX="0.0"
       refY="0.0"
       orient="auto"
       inkscape:stockid="Arrow1Lstart">
      <path
         transform="scale(0.8) translate(12.5,0)"
         style="fill-rule:evenodd;stroke:#000000;stroke-width:1pt;stroke-opacity:1;fill:#000000;fill-opacity:1"
         d="M 0.0,0.0 L 5.0,-5.0 L -12.5,0.0 L 5.0,5.0 L 0.0,0.0 z "
         id="path845" />
    </marker>
    <marker
       inkscape:collect="always"
       inkscape:isstock="true"
       style="overflow:visible;"
       id="Arrow1Lend"
       refX="0.0"
       refY="0.0"
       orient="auto"
       inkscape:stockid="Arrow1Lend">
      <path
         transform="scale(0.8) rotate(180) translate(12.5,0)"
         style="fill-rule:evenodd;stroke:#000000;stroke-width:1pt;stroke-opacity:1;fill:#000000;fill-opacity:1"
         d="M 0.0,0.0 L 5.0,-5.0 L -12.5,0.0 L 5.0,5.0 L 0.0,0.0 z "
         id="path848" />
    </marker>
  </defs>
  <sodipodi:namedview
     inkscape:window-maximized="0"
     inkscape:window-y="23"
     inkscape:window-x="0"
     inkscape:window-height="785"
     inkscape:window-width="1440"
     showgrid="false"
     inkscape:document-rotation="0"
     inkscape:current-layer="layer1"
     inkscape:document-units="mm"
     inkscape:cy="611.74106"
     inkscape:cx="449.05957"
     inkscape:zoom="0.81909035"
     inkscape:pageshadow="2"
     inkscape:pageopacity="0.0"
     borderopacity="1.0"
     bordercolor="#666666"
     pagecolor="#ffffff"
     id="base" />
  <metadata
     id="metadata5">
    <rdf:RDF>
      <cc:Work
         rdf:about="">
        <dc:format>image/svg+xml</dc:format>
        <dc:type
           rdf:resource="http://purl.org/dc/dcmitype/StillImage" />
        <dc:title></dc:title>
      </cc:Work>
    </rdf:RDF>
  </metadata>
  <g
     id="layer1"
     inkscape:groupmode="layer"
     inkscape:label="Calque 1">
    <path
       sodipodi:nodetypes="csssc"
       inkscape:connector-curvature="0"
       id="path833"
       d="m 42.633052,104.63366 c 0,0 12.913136,-22.781415 27.378011,-0.1933 11.558547,18.04963 22.859312,15.85065 10.632236,30.15491 -12.227072,14.30426 -42.794753,33.82764 -47.047648,11.59804 -4.252894,-22.22958 9.037401,-41.55965 9.037401,-41.55965 z"
       style="fill:none;stroke:#000000;stroke-width:0.150406px;stroke-linecap:butt;stroke-linejoin:miter;stroke-opacity:1" />
    <path
       sodipodi:nodetypes="cssc"
       inkscape:connector-curvature="0"
       id="path835"
       d="m 112.18228,66.959655 c 17.98809,-3.772101 26.42047,14.33693 10.20632,24.96847 -16.21417,10.631545 -35.352193,32.087925 -35.352193,5.99233 0,-26.0956 25.145873,-30.9608 25.145873,-30.9608 z"
       style="opacity:0.5;fill:#b3b3b3;stroke:#000000;stroke-width:0.150406px;stroke-linecap:butt;stroke-linejoin:miter;stroke-opacity:1" />
    <path
       sodipodi:nodetypes="csssc"
       inkscape:connector-curvature="0"
       id="path837"
       d="m 150.16658,98.019765 c 15.27194,-6.44382 15.70074,28.949965 1.79998,39.190135 -13.90078,10.24016 -42.61885,23.49212 -40.93853,9.33662 1.6803,-14.15553 20.3165,-9.93899 16.95588,-22.88978 -3.36063,-12.95079 22.18267,-25.636975 22.18267,-25.636975 z"
       style="fill:none;stroke:#000000;stroke-width:0.142324px;stroke-linecap:butt;stroke-linejoin:miter;stroke-opacity:1" />
    <path
       sodipodi:nodetypes="csscc"
       inkscape:connector-curvature="0"
       id="path839"
       d="m 59.856132,120.24807 c 14.035634,8.28687 13.723732,16.07148 3.742836,20.34047 -9.980896,4.26897 -23.080822,8.03573 -16.218955,-6.27792 6.861864,-14.31366 12.476119,-14.06255 12.476119,-14.06255 z"
       style="opacity:0.25;fill:#b3b3b3;stroke:#000000;stroke-width:0.20307px;stroke-linecap:butt;stroke-linejoin:miter;stroke-opacity:1" />
    <path
       sodipodi:nodetypes="cssc"
       inkscape:connector-curvature="0"
       id="path841"
       d="m 146.87706,118.74138 c 0.62381,11.80249 -14.34753,30.38513 -13.72373,21.09381 0.62381,-9.29132 -4.67854,-13.56031 4.99045,-19.08488 9.66899,-5.52457 8.73328,-2.00893 8.73328,-2.00893 z"
       style="opacity:0.25;fill:#b3b3b3;stroke:#000000;stroke-width:0.20307px;stroke-linecap:butt;stroke-linejoin:miter;stroke-opacity:1" />
    <path
       inkscape:connector-curvature="0"
       id="path1121"
       d="M 97.882999,85.297815 C 65.994624,103.38243 59.576839,126.14968 59.576839,126.14968"
       style="fill:none;stroke:#000000;stroke-width:0.20307px;stroke-linecap:butt;stroke-linejoin:miter;stroke-opacity:1;marker-end:url(#Arrow1Lend)" />
    <path
       inkscape:connector-curvature="0"
       id="path1177"
       d="m 112.12246,85.620745 c 32.08893,24.866355 29.0806,39.721585 29.0806,39.721585"
       style="fill:none;stroke:#000000;stroke-width:0.20307px;stroke-linecap:butt;stroke-linejoin:miter;stroke-opacity:1;marker-end:url(#marker1181)" />
    <path
       sodipodi:nodetypes="csssssssc"
       inkscape:connector-curvature="0"
       id="path1239"
       d="m 60.615579,173.70907 c -8.301462,12.17371 -29.944568,47.74005 -16.899409,56.57196 13.045159,8.83191 19.567738,-8.83191 42.396768,-7.39971 22.829022,1.4322 46.843982,-3.34181 56.034882,-17.90252 9.19092,-14.56071 10.96979,-62.30077 -9.78387,-44.87565 -20.75365,17.42512 -23.71847,17.42512 -20.1607,25.54093 3.55778,8.11581 -0.29648,18.85732 -6.22609,14.08331 -5.92962,-4.774 -2.66833,-23.63131 -13.638123,-30.07623 -10.969793,-6.4449 -15.417008,-19.81212 -31.723458,4.05791"
       style="fill:none;stroke:#000000;stroke-width:0.20307px;stroke-linecap:butt;stroke-linejoin:miter;stroke-opacity:1" />
    <path
       inkscape:connector-curvature="0"
       id="path1241"
       d="m 50.238749,150.07774 c 17.788853,37.71464 24.904395,37.47594 24.904395,37.47594"
       style="fill:none;stroke:#000000;stroke-width:0.20307px;stroke-linecap:butt;stroke-linejoin:miter;stroke-opacity:1;marker-end:url(#marker1245)" />
    <path
       inkscape:connector-curvature="0"
       id="path1289"
       d="m 132.36395,145.78114 c -6.81906,36.75984 -13.9346,40.81774 -13.9346,40.81774"
       style="fill:none;stroke:#000000;stroke-width:0.20307px;stroke-linecap:butt;stroke-linejoin:miter;stroke-opacity:1;marker-end:url(#marker1145)" />
    <path
       sodipodi:nodetypes="csssc"
       inkscape:connector-curvature="0"
       id="path1297"
       d="m 90.560149,200.9209 c 0,0 -18.678294,12.17371 -8.597944,14.56071 10.08035,2.387 27.276245,5.96751 32.316415,-1.90961 5.04018,-7.8771 1.18593,-10.2641 -8.00498,-11.21891 -9.19091,-0.95479 -15.713491,-1.43219 -15.713491,-1.43219 z"
       style="opacity:0.25;fill:#b3b3b3;stroke:#000000;stroke-width:0.20307px;stroke-linecap:butt;stroke-linejoin:miter;stroke-opacity:1" />
    <text
       id="text4997"
       y="81.078255"
       x="106.59691"
       style="font-size:4.23333px;line-height:1.25;font-family:sans-serif;stroke-width:0.264583"
       xml:space="preserve"><tspan
         style="stroke-width:0.264583"
         y="81.078255"
         x="106.59691"
         id="tspan4995"
         sodipodi:role="line">$A$</tspan></text>
    <text
       id="text5001"
       y="96.260239"
       x="134.05368"
       style="font-size:4.23333px;line-height:1.25;font-family:sans-serif;stroke-width:0.264583"
       xml:space="preserve"><tspan
         style="stroke-width:0.264583"
         y="96.260239"
         x="134.05368"
         id="tspan4999"
         sodipodi:role="line">$f$</tspan></text>
    <text
       id="text5005"
       y="94.645134"
       x="73.971794"
       style="font-size:4.23333px;line-height:1.25;font-family:sans-serif;stroke-width:0.264583"
       xml:space="preserve"><tspan
         style="stroke-width:0.264583"
         y="94.645134"
         x="73.971794"
         id="tspan5003"
         sodipodi:role="line">$g$</tspan></text>
    <text
       id="text5009"
       y="116.61056"
       x="44.253868"
       style="font-size:4.23333px;line-height:1.25;font-family:sans-serif;stroke-width:0.264583"
       xml:space="preserve"><tspan
         style="stroke-width:0.264583"
         y="116.61056"
         x="44.253868"
         id="tspan5007"
         sodipodi:role="line">$Y$</tspan></text>
    <text
       id="text5013"
       y="113.70337"
       x="149.8817"
       style="font-size:4.23333px;line-height:1.25;font-family:sans-serif;stroke-width:0.264583"
       xml:space="preserve"><tspan
         style="stroke-width:0.264583"
         y="113.70337"
         x="149.8817"
         id="tspan5011"
         sodipodi:role="line">$X$</tspan></text>
    <text
       id="text5017"
       y="213.19382"
       x="51.037308"
       style="font-size:4.23333px;line-height:1.25;font-family:sans-serif;stroke-width:0.264583"
       xml:space="preserve"><tspan
         style="stroke-width:0.264583"
         y="213.19382"
         x="51.037308"
         id="tspan5015"
         sodipodi:role="line">$X \bigcup_A Y$</tspan></text>
    <text
       id="text5021"
       y="135.66881"
       x="147.94359"
       style="font-size:4.23333px;line-height:1.25;font-family:sans-serif;stroke-width:0.264583"
       xml:space="preserve"><tspan
         style="stroke-width:0.264583"
         y="135.66881"
         x="147.94359"
         id="tspan5019"
         sodipodi:role="line">$f(A)$</tspan></text>
    <text
       id="text5025"
       y="137.92993"
       x="53.298454"
       style="font-size:4.23333px;line-height:1.25;font-family:sans-serif;stroke-width:0.264583"
       xml:space="preserve"><tspan
         style="stroke-width:0.264583"
         y="137.92993"
         x="53.298454"
         id="tspan5023"
         sodipodi:role="line">$g(A)$</tspan></text>
    <text
       id="text5029"
       y="211.90173"
       x="103.68972"
       style="font-size:4.23333px;line-height:1.25;font-family:sans-serif;stroke-width:0.264583"
       xml:space="preserve"><tspan
         style="stroke-width:0.264583"
         y="211.90173"
         x="103.68972"
         id="tspan5027"
         sodipodi:role="line">$f(a) \sim g(a) \; \forall a \in A$</tspan></text>
  </g>
</svg>
